<svg width="512" height="512" viewBox="-5 -10 50 50" fill="none" xmlns="http://www.w3.org/2000/svg">
<path d="M37.4168 3.195C33.6172 -0.609271 27.4482 -0.609271 23.6486 3.195L20.1338 6.7141L27.0179 13.6067C30.8054 17.4049 30.8175 23.5512 27.0482 27.3555L37.4108 16.9802C41.2104 13.1759 41.2104 6.99927 37.4108 3.195" fill="#E60076"/>
<path d="M13.2486 13.6067L20.1328 6.7141L16.618 3.195C12.8184 -0.609271 6.64931 -0.609271 2.84971 3.195C-0.949902 6.99927 -0.949902 13.1759 2.84971 16.9802L13.2123 27.3555C9.44296 23.5451 9.45508 17.3988 13.2426 13.6067" fill="#00A6F4"/>
<path d="M27.0536 27.3562C30.8229 23.5459 30.8169 17.3996 27.0233 13.6074L20.1392 6.71484L13.255 13.6074C9.4615 17.4056 9.45544 23.5459 13.2247 27.3562L13.2611 27.3926C15.1639 29.2978 17.6546 30.2443 20.1452 30.2504C22.6359 30.2504 25.1265 29.2978 27.0294 27.3926L27.0657 27.3562H27.0536Z" fill="#5C3078"/>
</svg>
