<svg width="264" height="32" viewBox="0 0 264 32" fill="none" xmlns="http://www.w3.org/2000/svg">
<path d="M37.4168 3.195C33.6172 -0.609271 27.4482 -0.609271 23.6486 3.195L20.1338 6.7141L27.0179 13.6067C30.8054 17.4049 30.8175 23.5512 27.0482 27.3555L37.4108 16.9802C41.2104 13.1759 41.2104 6.99927 37.4108 3.195" fill="#E60076"/>
<path d="M13.2486 13.6067L20.1328 6.7141L16.618 3.195C12.8184 -0.609271 6.64931 -0.609271 2.84971 3.195C-0.949902 6.99927 -0.949902 13.1759 2.84971 16.9802L13.2123 27.3555C9.44296 23.5451 9.45508 17.3988 13.2426 13.6067" fill="#00A6F4"/>
<path d="M27.0536 27.3562C30.8229 23.5459 30.8169 17.3996 27.0233 13.6074L20.1392 6.71484L13.255 13.6074C9.4615 17.4056 9.45544 23.5459 13.2247 27.3562L13.2611 27.3926C15.1639 29.2978 17.6546 30.2443 20.1452 30.2504C22.6359 30.2504 25.1265 29.2978 27.0294 27.3926L27.0657 27.3562H27.0536Z" fill="#5C3078"/>
<path d="M62.9887 22.6867C63.5279 22.6867 64.0122 22.8267 64.4363 23.0996C64.8605 23.3726 65.1939 23.7669 65.4363 24.2826C65.6787 24.7984 65.8001 25.4173 65.8001 26.1454C65.8001 26.8733 65.6786 27.4924 65.4363 28.0081C65.1939 28.5235 64.8609 28.9237 64.443 29.1967C64.0189 29.4757 63.5401 29.6151 63.001 29.6152C62.5953 29.6152 62.2615 29.5492 62.001 29.4099C61.7405 29.2703 61.5404 29.1119 61.395 28.9299C61.2496 28.748 61.1401 28.5844 61.0613 28.4389H60.982V32.0003H59.6796V22.7782H60.9519V23.8641H61.0613C61.134 23.7246 61.2429 23.5605 61.3883 23.3786C61.5337 23.1967 61.7277 23.0326 61.982 22.8931C62.2366 22.7536 62.5706 22.6867 62.9887 22.6867ZM73.8168 22.6922C74.0832 22.6923 74.3679 22.7227 74.6706 22.7893C74.9735 22.85 75.2523 22.966 75.5188 23.1297C75.7794 23.2935 75.9976 23.5302 76.1673 23.8396C76.337 24.149 76.4217 24.5434 76.4217 25.0349V29.488H75.1494V28.5717H75.0947C75.0099 28.7416 74.8827 28.9056 74.713 29.0695C74.5434 29.2333 74.3252 29.3665 74.0646 29.4757C73.8041 29.5849 73.4832 29.6397 73.1137 29.6398L73.107 29.6342C72.6831 29.6341 72.3016 29.5552 71.9563 29.3976C71.6109 29.2398 71.3438 29.009 71.1438 28.7056C70.9439 28.4023 70.847 28.0323 70.847 27.5895C70.847 27.2134 70.9192 26.897 71.0646 26.6543C71.21 26.4118 71.4045 26.2184 71.6528 26.0728C71.9012 25.9272 72.1741 25.8231 72.4831 25.7503C72.786 25.6775 73.1012 25.6237 73.4162 25.5873C73.8159 25.5388 74.1432 25.5016 74.3916 25.4712C74.6401 25.4409 74.8222 25.3923 74.9374 25.3195C75.0524 25.2467 75.107 25.1379 75.107 24.9802V24.95C75.107 24.5678 74.9977 24.2702 74.7856 24.0639C74.5735 23.8578 74.2526 23.7481 73.8347 23.748C73.4165 23.748 73.0524 23.8452 72.7979 24.0393C72.5434 24.2335 72.3736 24.4467 72.2767 24.6833L71.0534 24.4043C71.1989 23.9978 71.4108 23.6631 71.6896 23.4143C71.9681 23.1598 72.2952 22.9782 72.6584 22.863C73.0219 22.7477 73.4108 22.6922 73.8168 22.6922ZM86.2097 22.6922C86.4761 22.6923 86.7607 22.7227 87.0635 22.7893C87.3664 22.85 87.6451 22.966 87.9117 23.1297C88.1722 23.2935 88.3904 23.5302 88.5601 23.8396C88.7298 24.149 88.8146 24.5434 88.8146 25.0349V29.488H87.5422V28.5717H87.4876C87.4027 28.7416 87.2755 28.9056 87.1059 29.0695C86.9362 29.2333 86.718 29.3665 86.4574 29.4757C86.1969 29.5849 85.8761 29.6397 85.5065 29.6398L85.4998 29.6342C85.076 29.6341 84.6944 29.5552 84.3492 29.3976C84.0038 29.2398 83.7367 29.009 83.5367 28.7056C83.3368 28.4023 83.2399 28.0323 83.2398 27.5895C83.2398 27.2134 83.312 26.897 83.4574 26.6543C83.6028 26.4118 83.7974 26.2184 84.0456 26.0728C84.2941 25.9272 84.5669 25.8231 84.876 25.7503C85.1788 25.6775 85.494 25.6237 85.809 25.5873C86.2087 25.5388 86.536 25.5016 86.7844 25.4712C87.0329 25.4409 87.2151 25.3923 87.3302 25.3195C87.4452 25.2467 87.4998 25.1379 87.4998 24.9802V24.95C87.4998 24.5678 87.3905 24.2702 87.1784 24.0639C86.9663 23.8578 86.6454 23.7481 86.2275 23.748C85.8094 23.748 85.4452 23.8452 85.1907 24.0393C84.9362 24.2335 84.7664 24.4467 84.6695 24.6833L83.4463 24.4043C83.5917 23.9978 83.8037 23.6631 84.0824 23.4143C84.361 23.1598 84.688 22.9782 85.0512 22.863C85.4148 22.7477 85.8036 22.6922 86.2097 22.6922ZM122.527 22.6922C122.793 22.6923 123.078 22.7227 123.38 22.7893C123.683 22.85 123.962 22.966 124.229 23.1297C124.489 23.2935 124.707 23.5302 124.877 23.8396C125.047 24.149 125.131 24.5434 125.131 25.0349V29.488H123.859V28.5717H123.804C123.72 28.7416 123.592 28.9056 123.423 29.0695C123.253 29.2333 123.035 29.3665 122.774 29.4757C122.514 29.5849 122.193 29.6397 121.823 29.6398L121.817 29.6342C121.393 29.6341 121.011 29.5552 120.666 29.3976C120.321 29.2398 120.054 29.009 119.854 28.7056C119.654 28.4023 119.557 28.0323 119.557 27.5895C119.557 27.2134 119.629 26.897 119.774 26.6543C119.92 26.4118 120.114 26.2184 120.362 26.0728C120.611 25.9272 120.884 25.8231 121.193 25.7503C121.496 25.6775 121.811 25.6237 122.126 25.5873C122.526 25.5388 122.853 25.5016 123.101 25.4712C123.35 25.4409 123.532 25.3923 123.647 25.3195C123.762 25.2467 123.817 25.1379 123.817 24.9802V24.95C123.817 24.5678 123.707 24.2702 123.495 24.0639C123.283 23.8578 122.962 23.7481 122.544 23.748C122.126 23.748 121.762 23.8452 121.508 24.0393C121.253 24.2335 121.083 24.4467 120.986 24.6833L119.763 24.4043C119.909 23.9978 120.121 23.6631 120.399 23.4143C120.678 23.1598 121.005 22.9782 121.368 22.863C121.732 22.7477 122.121 22.6922 122.527 22.6922ZM195.973 22.6922C196.239 22.6923 196.524 22.7227 196.827 22.7893C197.13 22.85 197.408 22.966 197.675 23.1297C197.935 23.2935 198.154 23.5302 198.323 23.8396C198.493 24.149 198.578 24.5434 198.578 25.0349V29.488H197.305V28.5717H197.251C197.166 28.7416 197.039 28.9056 196.869 29.0695C196.699 29.2333 196.481 29.3665 196.221 29.4757C195.96 29.5849 195.639 29.6397 195.27 29.6398L195.263 29.6342C194.839 29.6341 194.458 29.5552 194.112 29.3976C193.767 29.2398 193.5 29.009 193.3 28.7056C193.1 28.4023 193.003 28.0323 193.003 27.5895C193.003 27.2134 193.075 26.897 193.221 26.6543C193.366 26.4118 193.56 26.2184 193.809 26.0728C194.057 25.9272 194.33 25.8231 194.639 25.7503C194.942 25.6775 195.257 25.6237 195.572 25.5873C195.972 25.5388 196.299 25.5016 196.548 25.4712C196.796 25.4409 196.978 25.3923 197.093 25.3195C197.208 25.2467 197.263 25.1379 197.263 24.9802V24.95C197.263 24.5678 197.154 24.2702 196.942 24.0639C196.729 23.8578 196.409 23.7481 195.991 23.748C195.573 23.748 195.208 23.8452 194.954 24.0393C194.699 24.2335 194.53 24.4467 194.433 24.6833L193.209 24.4043C193.355 23.9978 193.567 23.6631 193.846 23.4143C194.124 23.1598 194.451 22.9782 194.814 22.863C195.178 22.7477 195.567 22.6922 195.973 22.6922ZM224.381 22.6922C224.648 22.6923 224.932 22.7227 225.235 22.7893C225.538 22.85 225.817 22.966 226.083 23.1297C226.344 23.2935 226.562 23.5302 226.732 23.8396C226.901 24.149 226.986 24.5434 226.986 25.0349V29.488H225.714V28.5717H225.659C225.574 28.7416 225.447 28.9056 225.277 29.0695C225.108 29.2333 224.89 29.3665 224.629 29.4757C224.368 29.5849 224.048 29.6397 223.678 29.6398L223.671 29.6342C223.248 29.6341 222.866 29.5552 222.521 29.3976C222.175 29.2398 221.908 29.009 221.708 28.7056C221.508 28.4023 221.411 28.0323 221.411 27.5895C221.411 27.2134 221.484 26.897 221.629 26.6543C221.774 26.4118 221.969 26.2184 222.217 26.0728C222.466 25.9272 222.738 25.8231 223.048 25.7503C223.35 25.6775 223.666 25.6237 223.981 25.5873C224.38 25.5388 224.708 25.5016 224.956 25.4712C225.204 25.4409 225.387 25.3923 225.502 25.3195C225.617 25.2467 225.671 25.1379 225.671 24.9802V24.95C225.671 24.5678 225.562 24.2702 225.35 24.0639C225.138 23.8578 224.817 23.7481 224.399 23.748C223.981 23.748 223.617 23.8452 223.362 24.0393C223.108 24.2335 222.938 24.4467 222.841 24.6833L221.618 24.4043C221.763 23.9978 221.975 23.6631 222.254 23.4143C222.533 23.1598 222.86 22.9782 223.223 22.863C223.586 22.7477 223.975 22.6922 224.381 22.6922ZM260.764 22.7045C261.485 22.7045 262.061 22.8628 262.473 23.1721C262.888 23.4856 263.16 23.9006 263.294 24.4177L262.128 24.6275C262.079 24.476 262 24.3301 261.891 24.1967C261.782 24.0634 261.643 23.9478 261.461 23.863C261.28 23.7781 261.055 23.7302 260.783 23.7302C260.413 23.7302 260.104 23.8153 259.855 23.9791C259.607 24.1429 259.486 24.3554 259.486 24.6163C259.486 24.8404 259.571 25.022 259.734 25.1554C259.897 25.2949 260.164 25.4042 260.534 25.4891L261.601 25.7324C262.219 25.8719 262.679 26.0961 262.976 26.3931C263.279 26.6904 263.43 27.0734 263.43 27.5527C263.43 27.953 263.316 28.311 263.085 28.6264C262.855 28.9418 262.534 29.1848 262.122 29.3607C261.71 29.5367 261.237 29.6275 260.691 29.6275C259.94 29.6275 259.328 29.4635 258.855 29.142C258.383 28.8205 258.092 28.3597 257.983 27.7715L259.243 27.5773C259.322 27.9047 259.486 28.153 259.728 28.3228C259.971 28.4927 260.292 28.5717 260.686 28.5717C261.116 28.5716 261.455 28.4807 261.709 28.3049C261.964 28.123 262.091 27.9045 262.091 27.6498C262.091 27.4375 262.012 27.2615 261.861 27.1219C261.703 26.9824 261.467 26.8733 261.146 26.8005L260.013 26.5516C259.389 26.406 258.929 26.1812 258.626 25.8719C258.329 25.5625 258.177 25.1681 258.177 24.6889C258.177 24.2945 258.285 23.9482 258.509 23.6509C258.728 23.3537 259.037 23.1233 259.425 22.9534C259.812 22.7835 260.261 22.7045 260.764 22.7045ZM98.4674 22.6922C99.0916 22.6922 99.6437 22.8379 100.11 23.123C100.577 23.4082 100.94 23.8155 101.201 24.3373C101.461 24.8591 101.589 25.4656 101.589 26.1632C101.589 26.861 101.461 27.4617 101.201 27.9835C100.94 28.4992 100.577 28.9059 100.11 29.1911C99.6437 29.4763 99.0916 29.6219 98.4674 29.6219C97.8374 29.6219 97.2922 29.4761 96.8257 29.1911C96.3591 28.8999 95.9959 28.4992 95.7353 27.9835C95.4747 27.4678 95.3469 26.861 95.3469 26.1632C95.3469 25.4655 95.4747 24.8591 95.7353 24.3373C95.9959 23.8155 96.3591 23.4082 96.8257 23.123C97.2922 22.832 97.8436 22.6923 98.4674 22.6922ZM141.88 22.6922C142.504 22.6922 143.057 22.8379 143.523 23.123C143.99 23.4082 144.353 23.8155 144.614 24.3373C144.874 24.8591 145.002 25.4656 145.002 26.1632C145.002 26.861 144.874 27.4617 144.614 27.9835C144.353 28.4992 143.99 28.9059 143.523 29.1911C143.057 29.4763 142.504 29.6219 141.88 29.6219C141.25 29.6219 140.705 29.4761 140.239 29.1911C139.772 28.8999 139.409 28.4992 139.148 27.9835C138.888 27.4678 138.76 26.861 138.76 26.1632C138.76 25.4655 138.888 24.8591 139.148 24.3373C139.409 23.8155 139.772 23.4082 140.239 23.123C140.705 22.832 141.256 22.6923 141.88 22.6922ZM162.265 22.6867C162.774 22.6867 163.229 22.7837 163.629 22.9657C164.029 23.1537 164.35 23.415 164.592 23.7547C164.841 24.0945 164.986 24.4888 165.029 24.9378H163.756C163.69 24.6223 163.526 24.3547 163.278 24.1242C163.029 23.8938 162.695 23.7849 162.278 23.7849C161.914 23.7849 161.599 23.8826 161.327 24.0706C161.054 24.2586 160.842 24.5313 160.691 24.8831C160.539 25.2349 160.466 25.6473 160.466 26.1264C160.466 26.6057 160.539 27.0374 160.691 27.3954C160.842 27.753 161.048 28.0261 161.32 28.2201C161.593 28.4143 161.915 28.5114 162.284 28.5114C162.532 28.5114 162.756 28.4628 162.956 28.3719C163.156 28.2809 163.327 28.1478 163.466 27.9779C163.606 27.8081 163.702 27.6012 163.756 27.3585H165.029C164.98 27.7892 164.841 28.1773 164.605 28.517C164.368 28.8568 164.053 29.1237 163.659 29.3239C163.265 29.518 162.805 29.6152 162.272 29.6152L162.278 29.6219C161.629 29.6219 161.072 29.476 160.606 29.1788C160.139 28.8816 159.782 28.475 159.533 27.9534C159.285 27.4316 159.157 26.8367 159.157 26.1632C159.157 25.4898 159.284 24.8769 159.539 24.3552C159.793 23.8334 160.157 23.427 160.624 23.1297C161.09 22.8325 161.635 22.6867 162.265 22.6867ZM177.467 22.6922C177.843 22.6922 178.213 22.7534 178.564 22.8809C178.922 23.0083 179.237 23.2021 179.522 23.469C179.807 23.7359 180.025 24.0819 180.188 24.5125C180.352 24.9373 180.43 25.4594 180.43 26.0661V26.527H175.666C175.676 26.937 175.751 27.2889 175.898 27.5829C176.056 27.8983 176.28 28.1355 176.564 28.2994C176.849 28.4631 177.183 28.5482 177.564 28.5482C177.813 28.5482 178.037 28.5116 178.243 28.4389C178.449 28.3662 178.624 28.2628 178.77 28.1174C178.921 27.978 179.031 27.7957 179.11 27.5895L180.346 27.8139C180.249 28.1777 180.073 28.493 179.819 28.7659C179.564 29.0389 179.243 29.252 178.861 29.3976C178.479 29.5493 178.043 29.6219 177.552 29.6219C176.892 29.6219 176.322 29.4818 175.849 29.1967C175.377 28.9116 175.007 28.5112 174.753 27.9958C174.498 27.4801 174.365 26.8732 174.365 26.1755C174.365 25.4777 174.492 24.8826 174.753 24.3608C175.013 23.8393 175.37 23.4264 175.837 23.1353C176.303 22.838 176.843 22.6922 177.467 22.6922ZM202.129 23.8697H202.208C202.281 23.7302 202.39 23.5662 202.535 23.3842C202.681 23.2022 202.875 23.0382 203.129 22.8987C203.384 22.7592 203.718 22.6922 204.136 22.6922C204.675 22.6923 205.159 22.8324 205.583 23.1052C206.007 23.3782 206.341 23.7727 206.583 24.2882C206.826 24.8039 206.947 25.423 206.947 26.1509C206.947 26.879 206.826 27.4979 206.583 28.0137C206.341 28.5294 206.008 28.9303 205.59 29.2034C205.166 29.4825 204.686 29.6219 204.147 29.6219C203.741 29.6218 203.408 29.5549 203.154 29.4154C202.899 29.276 202.693 29.1185 202.548 28.9366C202.402 28.7546 202.293 28.5901 202.214 28.4445H202.106V29.488H200.827V20.5449H202.129V23.8697ZM211.65 22.6922C212.274 22.6922 212.826 22.8379 213.293 23.123C213.76 23.4082 214.123 23.8155 214.383 24.3373C214.644 24.8591 214.772 25.4656 214.772 26.1632C214.772 26.861 214.644 27.4617 214.383 27.9835C214.123 28.4992 213.76 28.9059 213.293 29.1911C212.826 29.4763 212.274 29.6219 211.65 29.6219C211.02 29.6219 210.475 29.4761 210.008 29.1911C209.542 28.8999 209.179 28.4992 208.918 27.9835C208.657 27.4678 208.53 26.861 208.53 26.1632C208.53 25.4655 208.658 24.8591 208.918 24.3373C209.179 23.8155 209.542 23.4082 210.008 23.123C210.475 22.832 211.026 22.6923 211.65 22.6922ZM236.871 22.6922C237.495 22.6922 238.047 22.8379 238.514 23.123C238.981 23.4082 239.344 23.8155 239.604 24.3373C239.865 24.8591 239.993 25.4656 239.993 26.1632C239.993 26.861 239.865 27.4617 239.604 27.9835C239.344 28.4992 238.981 28.906 238.514 29.1911C238.047 29.4763 237.495 29.6219 236.871 29.6219C236.241 29.6219 235.696 29.4761 235.229 29.1911C234.763 28.8999 234.4 28.4991 234.139 27.9835C233.878 27.4678 233.751 26.861 233.751 26.1632C233.751 25.4655 233.878 24.8591 234.139 24.3373C234.4 23.8155 234.763 23.4082 235.229 23.123C235.696 22.832 236.247 22.6923 236.871 22.6922ZM253.3 22.6922C253.924 22.6922 254.476 22.8379 254.943 23.123C255.409 23.4082 255.772 23.8155 256.033 24.3373C256.293 24.8591 256.421 25.4656 256.421 26.1632C256.421 26.861 256.293 27.4617 256.033 27.9835C255.772 28.4992 255.409 28.9059 254.943 29.1911C254.476 29.4763 253.924 29.6219 253.3 29.6219C252.67 29.6219 252.124 29.4761 251.658 29.1911C251.191 28.8999 250.827 28.4992 250.566 27.9835C250.306 27.4678 250.179 26.8609 250.179 26.1632C250.179 25.4657 250.306 24.859 250.566 24.3373C250.827 23.8155 251.191 23.4082 251.658 23.123C252.124 22.832 252.676 22.6923 253.3 22.6922ZM133.457 29.6152H133.451L133.453 29.6141C133.454 29.6141 133.456 29.6152 133.457 29.6152ZM136.772 29.4824H135.499V28.4378H135.39C135.312 28.5833 135.196 28.7419 135.051 28.9299C134.906 29.1119 134.705 29.2753 134.445 29.4087C134.185 29.542 133.858 29.6138 133.453 29.6141C132.915 29.6134 132.432 29.4751 132.009 29.1967C131.585 28.9176 131.251 28.5237 131.014 28.0081C130.778 27.4925 130.657 26.8672 130.657 26.1454C130.657 25.4235 130.779 24.7983 131.021 24.2826C131.263 23.7669 131.597 23.3715 132.021 23.0985C132.445 22.8257 132.924 22.6867 133.463 22.6867C133.881 22.6867 134.214 22.7536 134.468 22.8931C134.723 23.0327 134.923 23.1905 135.062 23.3786C135.201 23.5605 135.312 23.7235 135.39 23.863H135.468V20.5382H136.772V29.4824ZM80.3168 22.7771H81.6929V23.8273H80.3168V27.5159C80.3168 27.7705 80.3531 27.9588 80.4318 28.0862C80.5045 28.2136 80.6075 28.2993 80.7286 28.3418C80.8498 28.3903 80.9833 28.4076 81.1226 28.4076C81.2256 28.4076 81.3173 28.4024 81.3961 28.3842C81.4744 28.3721 81.5345 28.3594 81.5769 28.3474L81.8135 29.4277C81.7407 29.458 81.6312 29.4878 81.492 29.5181C81.3527 29.5484 81.1767 29.5672 80.9708 29.5672C80.6258 29.5672 80.311 29.5125 80.0144 29.3853C79.7174 29.2579 79.4741 29.0574 79.2923 28.7904C79.1105 28.5235 79.0199 28.183 79.0199 27.7826V23.8273H78.0322V22.7771H79.0199V21.1699H80.3168V22.7771ZM230.886 22.7771H232.262V23.8273H230.886V27.5159C230.886 27.7705 230.922 27.9588 231.001 28.0862C231.073 28.2136 231.176 28.2993 231.297 28.3418C231.419 28.3903 231.552 28.4076 231.691 28.4076C231.794 28.4076 231.886 28.4024 231.965 28.3842C232.043 28.3721 232.103 28.3594 232.146 28.3474L232.382 29.4277C232.31 29.458 232.2 29.4878 232.061 29.5181C231.922 29.5484 231.746 29.5672 231.54 29.5672C231.195 29.5672 230.88 29.5125 230.583 29.3853C230.286 29.2579 230.043 29.0574 229.861 28.7904C229.679 28.5235 229.589 28.183 229.589 27.7826V23.8273H228.601V22.7771H229.589V21.1699H230.886V22.7771ZM106.79 22.6867C106.899 22.6867 106.99 22.6991 107.057 22.7112V23.9612C107.002 23.9491 106.911 23.9303 106.778 23.9121C106.645 23.8939 106.511 23.882 106.378 23.882C106.069 23.882 105.796 23.9487 105.553 24.0762C105.311 24.2036 105.123 24.3859 104.984 24.6163C104.845 24.8468 104.772 25.1015 104.772 25.3987V29.4947H103.469L103.463 29.488V22.7782H104.723V23.8451H104.797C104.918 23.4874 105.136 23.2025 105.445 22.9902C105.754 22.7781 106.105 22.6811 106.499 22.6811C106.577 22.6811 106.675 22.6806 106.79 22.6867ZM187.415 28.3295H191.463V29.4947H186.07V20.5449H187.415V28.3295ZM219.971 22.6867C220.08 22.6867 220.171 22.6991 220.237 22.7112V23.9612C220.183 23.9491 220.092 23.9303 219.958 23.9121C219.825 23.8939 219.692 23.882 219.559 23.882C219.25 23.882 218.976 23.9487 218.734 24.0762C218.492 24.2036 218.304 24.3859 218.165 24.6163C218.025 24.8468 217.953 25.1015 217.953 25.3987V29.4947H216.649L216.644 29.488V22.7782H217.904V23.8451H217.977C218.098 23.4874 218.317 23.2025 218.626 22.9902C218.935 22.7781 219.286 22.6811 219.679 22.6811C219.758 22.6811 219.855 22.6806 219.971 22.6867ZM245.194 22.6867C245.303 22.6867 245.394 22.6991 245.46 22.7112V23.9612C245.406 23.9491 245.315 23.9303 245.181 23.9121C245.048 23.8939 244.915 23.882 244.782 23.882C244.473 23.882 244.199 23.9487 243.957 24.0762C243.715 24.2036 243.527 24.3859 243.388 24.6163C243.249 24.8468 243.176 25.1015 243.176 25.3987V29.4947H241.872L241.867 29.488V22.7782H243.127V23.8451H243.2C243.322 23.4874 243.54 23.2025 243.849 22.9902C244.158 22.7781 244.509 22.6811 244.902 22.6811C244.981 22.6811 245.079 22.6806 245.194 22.6867ZM54.4117 29.488H52.9809L52.1617 27.1163H48.674L47.8548 29.488H46.4185L49.6361 20.5449H51.1941L54.4117 29.488ZM93.3904 20.1264C93.651 20.1264 93.8756 20.1442 94.0634 20.1867C94.2511 20.2291 94.3905 20.2652 94.4753 20.3016L94.1717 21.3574C94.1112 21.3393 94.0327 21.3213 93.9362 21.2972C93.8393 21.2729 93.7238 21.2603 93.5846 21.2603C93.2695 21.2603 93.0383 21.3392 92.905 21.4969C92.7717 21.6546 92.7052 21.8795 92.7052 22.1766V22.7782H94.1483V23.8273H92.7052V29.488H91.4027V23.8273H90.3603V22.7782H91.4027V22.0014C91.4027 21.583 91.4934 21.2308 91.675 20.9579C91.8568 20.6848 92.0997 20.4724 92.4027 20.3329C92.7057 20.1933 93.0329 20.1264 93.3904 20.1264ZM115.649 22.6922C116.255 22.6923 116.753 22.8804 117.14 23.2625C117.528 23.6447 117.715 24.2215 117.715 24.9858V29.488H116.413V25.1141C116.413 24.659 116.292 24.3304 116.043 24.1242C115.795 23.9179 115.498 23.8217 115.158 23.8217C114.734 23.8217 114.401 23.9492 114.171 24.2101C113.934 24.471 113.819 24.8048 113.819 25.2112V29.488H112.517V25.0282C112.516 24.6644 112.401 24.3731 112.177 24.1487C111.953 23.9303 111.656 23.815 111.292 23.815C111.044 23.815 110.819 23.8818 110.607 24.0092C110.395 24.1366 110.232 24.319 110.105 24.5494C109.977 24.7799 109.916 25.0473 109.916 25.3507V29.488H108.601V22.7782H109.856V23.8697H109.941C110.08 23.4996 110.311 23.2148 110.626 23.0025C110.941 22.7964 111.322 22.6923 111.764 22.6922C112.207 22.6922 112.589 22.7959 112.892 23.0081C113.194 23.2204 113.419 23.5057 113.565 23.8697H113.637C113.795 23.5119 114.049 23.2271 114.4 23.0148C114.752 22.8024 115.165 22.6922 115.649 22.6922ZM157.963 29.488H156.532L155.713 27.1163H152.225L151.406 29.488H149.97L153.187 20.5449H154.745L157.963 29.488ZM168.134 23.8764H168.218C168.376 23.5186 168.612 23.2271 168.939 23.0148C169.261 22.8024 169.685 22.6923 170.206 22.6922C170.667 22.6922 171.067 22.7899 171.413 22.978C171.758 23.166 172.024 23.4517 172.212 23.8217C172.399 24.1977 172.497 24.6645 172.497 25.2224V29.488H171.194V25.3808C171.194 24.8894 171.067 24.5066 170.812 24.2335C170.558 23.9607 170.206 23.8273 169.757 23.8273C169.449 23.8273 169.176 23.8942 168.934 24.0215C168.691 24.1489 168.497 24.3437 168.363 24.5985C168.224 24.8532 168.158 25.1565 168.158 25.5081L168.151 25.5025V29.488H166.849V20.5449H168.134V23.8764ZM248.307 29.488H247.005V22.7771H248.307V29.488ZM68.9865 29.4824H67.684V20.5382H68.9865V29.4824ZM75.1014 26.2056C75.053 26.2541 74.9678 26.2965 74.8347 26.3329C74.7015 26.3753 74.5499 26.4063 74.3804 26.4366C74.2109 26.4609 74.0468 26.491 73.8894 26.5092C73.7318 26.5335 73.5978 26.5517 73.4887 26.5639C73.2344 26.5942 73.0038 26.6491 72.7979 26.7279C72.5921 26.8007 72.4223 26.9095 72.3012 27.0549C72.1801 27.2005 72.1138 27.3826 72.1137 27.613C72.1137 27.9345 72.2347 28.1775 72.4709 28.3474C72.7072 28.5172 73.0168 28.5962 73.3804 28.5962L73.386 28.584C73.7436 28.584 74.0529 28.5115 74.3135 28.3719C74.5679 28.2324 74.7684 28.0444 74.9016 27.8139C75.0349 27.5833 75.1014 27.3342 75.1014 27.0672V26.2056ZM87.4998 26.2056C87.4514 26.2542 87.3664 26.2964 87.2331 26.3329C87.0998 26.3753 86.9485 26.4063 86.7789 26.4366C86.6092 26.4609 86.4453 26.491 86.2878 26.5092C86.1304 26.5334 85.9972 26.5517 85.8882 26.5639C85.6337 26.5942 85.4034 26.6491 85.1974 26.7279C84.9915 26.8007 84.8219 26.9095 84.7007 27.0549C84.5796 27.2005 84.5122 27.3826 84.5121 27.613C84.5121 27.9346 84.634 28.1775 84.8704 28.3474C85.1067 28.5171 85.4154 28.5962 85.7789 28.5962L85.7844 28.584C86.1419 28.584 86.4514 28.5114 86.7119 28.3719C86.9664 28.2324 87.1667 28.0444 87.3001 27.8139C87.4334 27.5833 87.4998 27.3342 87.4998 27.0672V26.2056ZM123.817 26.2056C123.768 26.2542 123.683 26.2964 123.55 26.3329C123.417 26.3753 123.265 26.4063 123.096 26.4366C122.926 26.4609 122.762 26.491 122.605 26.5092C122.447 26.5334 122.314 26.5517 122.205 26.5639C121.951 26.5942 121.72 26.6491 121.514 26.7279C121.308 26.8007 121.139 26.9095 121.018 27.0549C120.896 27.2005 120.829 27.3826 120.829 27.613C120.829 27.9346 120.951 28.1775 121.187 28.3474C121.424 28.5171 121.732 28.5962 122.096 28.5962L122.102 28.584C122.46 28.5839 122.768 28.5113 123.029 28.3719C123.283 28.2324 123.484 28.0444 123.617 27.8139C123.75 27.5833 123.817 27.3342 123.817 27.0672V26.2056ZM197.263 26.2056C197.214 26.2542 197.13 26.2964 196.996 26.3329C196.863 26.3753 196.712 26.4063 196.542 26.4366C196.372 26.4609 196.208 26.491 196.051 26.5092C195.894 26.5334 195.76 26.5517 195.651 26.5639C195.397 26.5942 195.167 26.6491 194.961 26.7279C194.755 26.8007 194.585 26.9095 194.464 27.0549C194.343 27.2005 194.275 27.3826 194.275 27.613C194.275 27.9346 194.397 28.1775 194.634 28.3474C194.87 28.5171 195.179 28.5962 195.542 28.5962L195.548 28.584C195.905 28.584 196.214 28.5114 196.475 28.3719C196.729 28.2324 196.93 28.0444 197.063 27.8139C197.197 27.5833 197.263 27.3342 197.263 27.0672V26.2056ZM225.671 26.2056C225.623 26.2542 225.538 26.2964 225.405 26.3329C225.271 26.3753 225.12 26.4063 224.95 26.4366C224.781 26.4609 224.617 26.491 224.459 26.5092C224.302 26.5334 224.169 26.5517 224.06 26.5639C223.805 26.5942 223.575 26.6491 223.369 26.7279C223.163 26.8007 222.993 26.9095 222.872 27.0549C222.751 27.2005 222.684 27.3826 222.684 27.613C222.684 27.9346 222.806 28.1775 223.042 28.3474C223.278 28.5171 223.587 28.5962 223.95 28.5962L223.956 28.584C224.313 28.584 224.623 28.5114 224.883 28.3719C225.138 28.2324 225.338 28.0444 225.472 27.8139C225.605 27.5833 225.671 27.3342 225.671 27.0672V26.2056ZM98.4741 23.7793C98.0683 23.7793 97.7229 23.8881 97.4563 24.1063C97.1896 24.3247 96.9892 24.6166 96.8558 24.9746C96.7287 25.3325 96.6616 25.727 96.6616 26.1576C96.6617 26.5883 96.7286 26.9828 96.8558 27.3407C96.9831 27.6985 97.1836 27.9839 97.4563 28.2023C97.7289 28.4205 98.0623 28.5237 98.4741 28.5237C98.88 28.5236 99.2198 28.4146 99.4864 28.2023C99.7529 27.9899 99.9529 27.6985 100.08 27.3407C100.207 26.9828 100.273 26.5883 100.273 26.1576C100.273 25.7271 100.207 25.3385 100.08 24.9746C99.9529 24.6167 99.7529 24.3247 99.4864 24.1063C99.2198 23.8879 98.88 23.7793 98.4741 23.7793ZM141.88 23.7793C141.474 23.7794 141.129 23.8879 140.862 24.1063C140.596 24.3247 140.396 24.6166 140.263 24.9746C140.136 25.3325 140.069 25.727 140.069 26.1576C140.069 26.5883 140.136 26.9828 140.263 27.3407C140.39 27.6985 140.59 27.9839 140.862 28.2023C141.135 28.4206 141.468 28.5236 141.88 28.5237C142.286 28.5237 142.626 28.4145 142.893 28.2023C143.159 27.99 143.359 27.6985 143.486 27.3407C143.614 26.9828 143.68 26.5883 143.681 26.1576C143.681 25.727 143.613 25.3385 143.486 24.9746C143.359 24.6166 143.159 24.3247 142.893 24.1063C142.626 23.888 142.286 23.7793 141.88 23.7793ZM211.657 23.7793C211.251 23.7793 210.906 23.8881 210.639 24.1063C210.372 24.3247 210.172 24.6166 210.039 24.9746C209.911 25.3325 209.844 25.727 209.844 26.1576C209.844 26.5883 209.911 26.9828 210.039 27.3407C210.166 27.6985 210.366 27.9839 210.639 28.2023C210.912 28.4205 211.245 28.5237 211.657 28.5237C212.063 28.5236 212.403 28.4146 212.669 28.2023C212.936 27.9899 213.136 27.6985 213.263 27.3407C213.39 26.9828 213.456 26.5883 213.456 26.1576C213.456 25.7271 213.39 25.3385 213.263 24.9746C213.136 24.6167 212.936 24.3247 212.669 24.1063C212.403 23.8879 212.063 23.7793 211.657 23.7793ZM236.871 23.7782C236.465 23.7782 236.12 23.8879 235.853 24.1063C235.587 24.3246 235.387 24.6158 235.254 24.9735C235.127 25.3315 235.06 25.7268 235.06 26.1576C235.06 26.5882 235.127 26.9828 235.254 27.3407C235.381 27.6984 235.581 27.9839 235.853 28.2023C236.126 28.4206 236.459 28.5236 236.871 28.5237C237.277 28.5237 237.617 28.4145 237.883 28.2023C238.15 27.99 238.35 27.6985 238.477 27.3407C238.604 26.9828 238.671 26.5882 238.671 26.1576C238.671 25.7268 238.604 25.3375 238.477 24.9735C238.35 24.6157 238.15 24.3246 237.883 24.1063C237.617 23.8879 237.277 23.7782 236.871 23.7782ZM253.306 23.7793C252.901 23.7793 252.555 23.8881 252.289 24.1063C252.022 24.3247 251.821 24.6166 251.688 24.9746C251.561 25.3325 251.494 25.727 251.494 26.1576C251.494 26.5883 251.561 26.9828 251.688 27.3407C251.815 27.6985 252.016 27.9839 252.289 28.2023C252.561 28.4204 252.895 28.5237 253.306 28.5237C253.712 28.5236 254.052 28.4146 254.319 28.2023C254.585 27.9899 254.785 27.6985 254.912 27.3407C255.04 26.9828 255.105 26.5883 255.105 26.1576C255.105 25.7271 255.04 25.3385 254.912 24.9746C254.785 24.6167 254.585 24.3247 254.319 24.1063C254.052 23.8879 253.712 23.7793 253.306 23.7793ZM133.747 23.8027C133.372 23.8028 133.027 23.9062 132.766 24.1063C132.506 24.3126 132.305 24.5854 132.172 24.9433C132.038 25.2952 131.972 25.6958 131.972 26.1387C131.972 26.5815 132.038 26.9883 132.172 27.3462C132.305 27.7042 132.506 27.9893 132.766 28.1956C133.027 28.4017 133.354 28.5047 133.742 28.5047H133.747C134.123 28.5047 134.439 28.4081 134.699 28.2078C134.96 28.0076 135.16 27.7282 135.293 27.3764C135.427 27.0245 135.493 26.6058 135.493 26.1387C135.493 25.6716 135.427 25.2651 135.293 24.9132C135.16 24.5613 134.966 24.2942 134.705 24.094C134.445 23.8999 134.123 23.8027 133.747 23.8027ZM62.703 23.7971C62.3155 23.7972 62.007 23.8945 61.7465 24.0884C61.486 24.2826 61.2911 24.5557 61.1517 24.9076C61.0185 25.2595 60.9519 25.6661 60.9519 26.1331H60.9586C60.9586 26.6063 61.0246 27.0189 61.164 27.3708C61.3033 27.7287 61.4972 28.0021 61.7577 28.2023C62.0183 28.4025 62.334 28.4991 62.7097 28.4991C63.0853 28.4991 63.4246 28.3962 63.6852 28.19C63.9457 27.9838 64.1456 27.6985 64.2789 27.3407C64.4122 26.9827 64.4787 26.582 64.4787 26.1331C64.4787 25.6841 64.4122 25.2957 64.2789 24.9378C64.1456 24.5859 63.9517 24.307 63.6852 24.1007C63.4246 23.9005 63.0909 23.7971 62.703 23.7971ZM203.85 23.7971C203.463 23.7972 203.154 23.8945 202.894 24.0884C202.633 24.2826 202.438 24.5557 202.299 24.9076C202.165 25.2595 202.099 25.666 202.099 26.1331H202.106C202.106 26.6063 202.172 27.0189 202.311 27.3708C202.45 27.7287 202.644 28.0021 202.905 28.2023C203.165 28.4025 203.481 28.4991 203.857 28.4991C204.232 28.4991 204.572 28.3962 204.832 28.19C205.093 27.9838 205.293 27.6985 205.426 27.3407C205.559 26.9827 205.626 26.582 205.626 26.1331C205.626 25.6841 205.559 25.2957 205.426 24.9378C205.293 24.5859 205.099 24.307 204.832 24.1007C204.572 23.9005 204.238 23.7971 203.85 23.7971ZM49.0658 25.9813H51.77L50.4542 22.171H50.3816L49.0658 25.9813ZM152.617 25.9813H155.321L154.005 22.171H153.933L152.617 25.9813ZM177.467 23.7726C177.104 23.7726 176.782 23.8634 176.51 24.0393C176.237 24.2152 176.031 24.4518 175.879 24.7369C175.751 24.9877 175.684 25.258 175.668 25.5505H179.153C179.153 25.2046 179.079 24.9012 178.939 24.6342C178.8 24.3675 178.607 24.1552 178.352 24.0036C178.098 23.8519 177.807 23.7726 177.467 23.7726ZM263.297 24.4277C263.297 24.4243 263.295 24.4211 263.294 24.4177L263.31 24.4154L263.297 24.4277ZM177.909 21.8797H176.867L177.886 19.8652H179.261L177.909 21.8797ZM237.374 21.8797H236.332L237.35 19.8652H238.726L237.374 21.8797ZM247.659 20.1811C247.883 20.1811 248.078 20.2593 248.242 20.411C248.405 20.5625 248.484 20.7446 248.484 20.9567C248.484 21.169 248.405 21.3576 248.242 21.5092C248.078 21.6609 247.883 21.7402 247.659 21.7402C247.435 21.7401 247.241 21.6608 247.078 21.5092C246.914 21.3576 246.835 21.1757 246.835 20.9634C246.835 20.7511 246.914 20.5627 247.078 20.411C247.241 20.2594 247.435 20.1812 247.659 20.1811ZM79.0199 21.1699H79.0144L79.0199 21.1632V21.1699ZM229.589 21.1699H229.583L229.589 21.1632V21.1699Z" fill="#5C3078"/>
<path d="M203.193 0.491211C203.92 0.491285 204.381 0.819417 204.611 1.51074L208.356 12.875C208.665 13.7425 208.241 14.3184 207.338 14.3184H205.78C205.029 14.3182 204.593 13.9724 204.362 13.2627L204.078 11.916H200.182L199.896 13.2627C199.703 13.9726 199.242 14.3184 198.515 14.3184H196.957C196.054 14.3182 195.631 13.7424 195.939 12.875L199.685 1.51074C199.915 0.819339 200.357 0.491211 201.103 0.491211H203.193ZM217.743 0.491211C218.494 0.491429 218.955 0.83745 219.143 1.54688L220.815 7.4873C221.08 8.40101 221.332 9.82713 221.337 9.85352H221.373C221.378 9.82262 221.606 8.39952 221.894 7.4873L223.585 1.54688C223.797 0.837392 224.258 0.491211 225.003 0.491211H226.712C227.632 0.491494 228.038 1.06842 227.729 1.93555L223.815 13.3174C223.567 13.9906 223.106 14.3181 222.373 14.3184H220.318C219.591 14.3184 219.13 13.9909 218.876 13.3174L214.938 1.93555C214.629 1.06809 215.034 0.491259 215.955 0.491211H217.743ZM258.168 0.491211C258.895 0.491337 259.356 0.819386 259.586 1.51074L263.331 12.875C263.64 13.7422 263.216 14.318 262.313 14.3184H260.756C260.004 14.3184 259.568 13.9726 259.338 13.2627L259.047 11.916H255.15L254.865 13.2627C254.671 13.9724 254.21 14.3182 253.483 14.3184H251.926C251.023 14.3182 250.599 13.7424 250.908 12.875L254.653 1.51074H254.659C254.889 0.81948 255.332 0.491263 256.077 0.491211H258.168ZM166.487 0.491211C169.25 0.491211 171.075 2.58449 171.075 5.42969C171.075 8.27531 169.251 10.4297 166.487 10.4297H164.487V13.0625C164.487 13.8695 164.063 14.3125 163.239 14.3125H161.706C160.882 14.3125 160.439 13.8694 160.439 13.0625V1.74121C160.44 0.916376 160.882 0.491245 161.706 0.491211H166.487ZM187.933 0.491211C188.757 0.491211 189.181 0.916343 189.182 1.74121V10.8545H193.308C194.132 10.8545 194.574 11.2978 194.574 12.1045V13.0625C194.574 13.8695 194.132 14.3125 193.308 14.3125H186.394C185.569 14.3125 185.127 13.8695 185.127 13.0625V1.74121H185.133C185.133 0.916426 185.576 0.491296 186.399 0.491211H187.933ZM232.788 0.491211C233.612 0.491356 234.037 0.916483 234.037 1.74121V13.0625C234.037 13.8693 233.612 14.3123 232.788 14.3125H231.255C230.431 14.3123 229.989 13.8693 229.989 13.0625V1.74121C229.989 0.916496 230.431 0.491369 231.255 0.491211H232.788ZM242.256 0.491211C246.673 0.491513 249.455 3.02834 249.455 7.37207C249.455 11.7158 246.673 14.3122 242.256 14.3125H238.474C237.65 14.3124 237.207 13.8693 237.207 13.0625V1.74121C237.207 0.916483 237.65 0.491355 238.474 0.491211H242.256ZM181.098 0.491211C181.903 0.491211 182.346 0.916343 182.346 1.74121V2.69922C182.346 3.50619 181.904 3.94922 181.098 3.94922H177.45V5.62402H180.062C180.886 5.62402 181.328 6.06737 181.328 6.87402V7.83301C181.328 8.65798 180.886 9.08301 180.062 9.08301H177.45V10.8486H181.328C182.152 10.8486 182.594 11.2913 182.595 12.0977V13.0566C182.595 13.8636 182.152 14.3066 181.328 14.3066H174.668C173.844 14.3066 173.401 13.8635 173.401 13.0566V1.74121C173.402 0.916413 173.844 0.491283 174.668 0.491211H181.098ZM147.167 0.0117188C148.761 0.0117188 150.295 0.534346 151.01 1.01367C151.682 1.49293 151.736 2.06886 151.415 2.74219L150.858 3.84082C150.398 4.7448 149.786 4.59259 149.149 4.2832C148.459 3.97381 147.937 3.67099 147.113 3.6709C146.344 3.6709 146.076 3.93763 146.076 4.30762C146.076 5.88515 151.931 5.38189 151.931 9.82324C151.931 12.2077 150.124 14.3008 146.864 14.3008C144.962 14.3007 143.162 13.5729 142.374 12.9541C141.895 12.5901 141.532 12.0862 142.126 11.2246L142.119 11.2188L142.847 10.1631C143.307 9.4896 143.829 9.45307 144.574 9.85352C145.017 10.0236 145.786 10.6426 146.858 10.6426C147.646 10.6426 147.876 10.3509 147.876 10.0293C147.876 8.56724 142.041 8.85827 142.041 4.43555C142.041 1.78422 144.228 0.0118975 147.167 0.0117188ZM63.2832 0.242188C64.0891 0.242188 64.5322 0.667129 64.5322 1.49219V8.89453C64.5322 10.0472 65.2832 10.6054 66.4102 10.6055C67.5372 10.6055 68.3133 10.0475 68.3135 8.91309V1.49219C68.3135 0.667187 68.7375 0.242248 69.5615 0.242188H71.0947C71.9188 0.242188 72.3427 0.667129 72.3428 1.49219V8.89453C72.3428 12.0253 70.0223 14.2949 66.4287 14.2949C62.8351 14.2949 60.4775 12.0253 60.4775 8.89453V1.49219C60.4776 0.667129 60.9206 0.242188 61.7266 0.242188H63.2832ZM132.635 0.0117188C137.01 0.0117188 139.932 3.10642 139.932 7.06836C139.932 11.0304 137.01 14.2949 132.635 14.2949C128.26 14.2947 125.357 11.1213 125.357 7.06836C125.358 3.01553 128.254 0.0118905 132.635 0.0117188ZM52.9883 0.0117188C55.0061 0.0117188 56.4609 0.685342 57.3457 1.26172C57.982 1.72284 58.0365 2.33628 57.6123 3.00977L57.0371 3.96777C56.6129 4.6776 56.0371 4.75662 55.3281 4.33203C54.6737 3.96803 53.9099 3.69537 53.1768 3.69531C50.6256 3.69531 49.8194 5.46059 49.8193 7.03809C49.8193 8.61559 50.7404 10.5937 53.1582 10.5938C54.0246 10.5938 54.885 10.2296 55.5576 9.76855C56.2485 9.30743 56.8432 9.32589 57.3037 10.0176L57.9756 10.9395C58.3997 11.5764 58.382 12.2254 57.7461 12.6865C56.8069 13.4146 55.2129 14.2821 52.9648 14.2822C48.4502 14.2822 45.6318 11.2426 45.6318 7.12891C45.632 3.01547 48.6436 0.000171085 52.9883 0V0.0117188ZM103.579 0.242188C104.306 0.242263 104.767 0.57012 104.997 1.26172L108.742 12.626C109.051 13.4936 108.627 14.0703 107.724 14.0703H106.166C105.415 14.0702 104.978 13.7243 104.748 13.0146L104.458 11.667H100.561L100.276 13.0146C100.082 13.7244 99.6216 14.0703 98.8945 14.0703H97.3369C96.4341 14.0702 96.0103 13.4936 96.3193 12.626L100.064 1.26172H100.07C100.301 0.570116 100.743 0.242188 101.488 0.242188H103.579ZM78.1973 0.242188C79.0213 0.24224 79.4453 0.66718 79.4453 1.49219V12.8145C79.4452 13.6212 79.0212 14.0644 78.1973 14.0645H76.6641C75.84 14.0645 75.3976 13.6212 75.3975 12.8145V1.49219C75.3975 0.667129 75.84 0.242188 76.6641 0.242188H78.1973ZM87.6641 0.242188C92.0818 0.242188 94.8633 2.77878 94.8633 7.12305C94.8632 11.4672 92.0817 14.0645 87.6641 14.0645H83.8828C83.0588 14.0645 82.6163 13.6212 82.6162 12.8145V1.49219C82.6163 0.667129 83.0587 0.242188 83.8828 0.242188H87.6641ZM116.14 0.242188C120.557 0.242256 123.339 2.77884 123.339 7.12305C123.339 11.4672 120.557 14.0644 116.14 14.0645H112.358C111.534 14.0645 111.092 13.6212 111.092 12.8145V1.49219C111.092 0.667129 111.534 0.242188 112.358 0.242188H116.14ZM241.256 10.8545H242.122C244.122 10.8543 245.273 9.66501 245.273 7.37793C245.273 5.09099 244.043 3.95622 242.122 3.95605H241.256V10.8545ZM86.6641 10.5996H87.5312C89.5307 10.5994 90.6816 9.4102 90.6816 7.12305C90.6816 4.83582 89.452 3.70136 87.5312 3.70117H86.6641V10.5996ZM115.14 10.5996H116.006C118.006 10.5996 119.157 9.41038 119.157 7.12305C119.157 4.83563 117.927 3.70117 116.006 3.70117H115.14V10.5996ZM132.635 3.70117C130.793 3.70137 129.545 5.14533 129.545 7.0625C129.545 9.0828 130.811 10.5994 132.635 10.5996C134.477 10.5996 135.744 9.08294 135.744 7.0625C135.744 5.04205 134.477 3.70117 132.635 3.70117ZM202.127 4.22266C202.127 4.22266 201.818 5.83683 201.569 6.77734L201.108 8.7002H203.163L202.738 6.77734C202.491 5.84084 202.166 4.23629 202.163 4.22266H202.127ZM257.102 4.22266C257.1 4.2317 256.792 5.83947 256.544 6.77734L256.083 8.7002H258.138L257.714 6.77734C257.466 5.83926 257.139 4.23089 257.138 4.22266H257.102ZM102.513 3.96777C102.513 3.96777 102.204 5.58201 101.955 6.52246L101.494 8.44531H103.549L103.124 6.52246C102.876 5.58201 102.549 3.96777 102.549 3.96777H102.513ZM164.487 6.9707H165.621C166.578 6.97061 166.966 6.27965 166.966 5.43652C166.966 4.59338 166.584 3.95605 165.699 3.95605H164.487V6.9707Z" fill="#5C3078"/>
</svg>
